<svg id="e2d67ea3-f64d-4e24-8e24-040d3cd42fc6" data-name="Logo 4" xmlns="http://www.w3.org/2000/svg" xmlns:xlink="http://www.w3.org/1999/xlink" viewBox="0 0 214.83 22.7"><defs><clipPath id="be99908e-1ecf-4216-81e7-8bb0110413c0" transform="translate(-2.1 -0.65)"><rect x="1.7" y="0.24" width="216" height="24" style="fill:none"/></clipPath></defs><title>iteachfrontend</title><g style="clip-path:url(#be99908e-1ecf-4216-81e7-8bb0110413c0)"><path d="M34.14.77V3.66H28.46V.77Zm0,4V22.91H28.46V4.77Z" transform="translate(-2.1 -0.65)" style="fill:#ffd82a"/><path d="M43.35,2.35V5.2h1.49V8.07H43.35v9.71a5,5,0,0,0,.19,2c.12.13.63.2,1.53.2v2.93H42.85a15.41,15.41,0,0,1-2.7-.16A2.88,2.88,0,0,1,38.73,22a2.4,2.4,0,0,1-.76-1.3,21.32,21.32,0,0,1-.16-3.44V8.07H36.63V5.2h1.18V2.35Z" transform="translate(-2.1 -0.65)" style="fill:#ffd82a"/><path d="M60,14.16H52.82v3.92A4.34,4.34,0,0,0,53,19.67a.67.67,0,0,0,.68.35.82.82,0,0,0,.84-.47,5.16,5.16,0,0,0,.21-1.82v-2.4H60v1.34a12.1,12.1,0,0,1-.21,2.59,5.5,5.5,0,0,1-1,1.93,4.73,4.73,0,0,1-2,1.53,7.51,7.51,0,0,1-3,.52,8.63,8.63,0,0,1-3.09-.51,4.8,4.8,0,0,1-3.12-3.33,12.51,12.51,0,0,1-.29-3.08V11a9,9,0,0,1,.65-3.76A4.46,4.46,0,0,1,50,5.17a8.47,8.47,0,0,1,7.2.15,4.88,4.88,0,0,1,2.12,2.34A11,11,0,0,1,60,11.75Zm-5.54-2.95V9.88a6.69,6.69,0,0,0-.15-1.82.6.6,0,0,0-.61-.41c-.39,0-.62.12-.72.35a7.44,7.44,0,0,0-.13,1.88v1.33Z" transform="translate(-2.1 -0.65)" style="fill:#ffd82a"/><path d="M68.11,11.79H62.93V10.58a8.66,8.66,0,0,1,.48-3.25,4.62,4.62,0,0,1,2-2,7.37,7.37,0,0,1,3.8-.87,7.42,7.42,0,0,1,4.23,1A3.92,3.92,0,0,1,75.1,7.86a38.6,38.6,0,0,1,.28,5.94v9.11H70V21.29a3.54,3.54,0,0,1-1.31,1.46,3.63,3.63,0,0,1-1.9.49,4.59,4.59,0,0,1-2.66-.82c-.81-.54-1.21-1.73-1.21-3.56V17.37a4.33,4.33,0,0,1,.64-2.77,9,9,0,0,1,3.19-1.73,9.34,9.34,0,0,0,2.91-1.43,3.81,3.81,0,0,0,.19-1.51,5.13,5.13,0,0,0-.21-1.85.73.73,0,0,0-.71-.43q-.56,0-.69.36a6.89,6.89,0,0,0-.14,1.88Zm1.75,2.49a4.05,4.05,0,0,0-1.54,1.63,6.56,6.56,0,0,0-.21,1.89,5.59,5.59,0,0,0,.18,1.81A.72.72,0,0,0,69,20c.35,0,.58-.1.68-.32A5,5,0,0,0,69.86,18Z" transform="translate(-2.1 -0.65)" style="fill:#ffd82a"/><path d="M90.89,11.62H85.68V9.52A4,4,0,0,0,85.5,8a.75.75,0,0,0-1.29,0A4.33,4.33,0,0,0,84,9.52v8.56a3.25,3.25,0,0,0,.25,1.46A.77.77,0,0,0,85,20a.73.73,0,0,0,.76-.5A6.19,6.19,0,0,0,86,17.6V15.44h4.92a27.5,27.5,0,0,1-.16,3.26,5.18,5.18,0,0,1-.91,2.23,5,5,0,0,1-2,1.73A8.73,8.73,0,0,1,81,22.44a4.38,4.38,0,0,1-1.93-2.25,11.52,11.52,0,0,1-.57-4.09V11A10,10,0,0,1,79,7.46a4.54,4.54,0,0,1,2-2.1,7.9,7.9,0,0,1,7.38,0,4.51,4.51,0,0,1,2,2.31A12.34,12.34,0,0,1,90.89,11.62Z" transform="translate(-2.1 -0.65)" style="fill:#ffd82a"/><path d="M99.46.77v5a5,5,0,0,1,1.53-1,4.8,4.8,0,0,1,1.77-.33,4,4,0,0,1,2.47.74,3,3,0,0,1,1.25,1.7,18.23,18.23,0,0,1,.22,3.52V22.91h-5.52V10.14a7.67,7.67,0,0,0-.16-2,.66.66,0,0,0-.7-.45.68.68,0,0,0-.69.47A6.14,6.14,0,0,0,99.46,10v13H93.93V.77Z" transform="translate(-2.1 -0.65)" style="fill:#ffd82a"/><path d="M117,.77V3.58a7.07,7.07,0,0,0-2,.15c-.21.11-.31.41-.31.9V5.2H117V8.07h-1.31V22.91h-5.52V8.07h-1.14V5.2h1.14a15,15,0,0,1,.12-2.39,2,2,0,0,1,.61-1.07A3,3,0,0,1,112.3,1,11.07,11.07,0,0,1,115,.77Z" transform="translate(-2.1 -0.65)" style="fill:#38473b"/><path d="M125,4.77l-.22,2.38a4.09,4.09,0,0,1,3.49-2.71v6.38a4.64,4.64,0,0,0-2.23.41,1.74,1.74,0,0,0-.88,1.14,20.67,20.67,0,0,0-.16,3.37v7.17H119.5V4.77Z" transform="translate(-2.1 -0.65)" style="fill:#38473b"/><path d="M143.41,11.14v4.44a19.23,19.23,0,0,1-.24,3.59,5.09,5.09,0,0,1-1.06,2.13A4.73,4.73,0,0,1,140,22.77a8.36,8.36,0,0,1-2.9.47,10.37,10.37,0,0,1-3.11-.41,4.19,4.19,0,0,1-2-1.21,4.86,4.86,0,0,1-1-2,14.88,14.88,0,0,1-.3-3.47V11.53a11.5,11.5,0,0,1,.55-3.95,4.48,4.48,0,0,1,2-2.28,7,7,0,0,1,3.64-.86A8.32,8.32,0,0,1,140.1,5a5.2,5.2,0,0,1,2.06,1.44,5.27,5.27,0,0,1,1,1.84A11.8,11.8,0,0,1,143.41,11.14Zm-5.52-1.37A6.06,6.06,0,0,0,137.74,8a.62.62,0,0,0-.64-.36.65.65,0,0,0-.66.36,5.59,5.59,0,0,0-.16,1.76V18a5.28,5.28,0,0,0,.16,1.67.75.75,0,0,0,1.29,0,4.49,4.49,0,0,0,.16-1.53Z" transform="translate(-2.1 -0.65)" style="fill:#38473b"/><path d="M152.25,4.77l-.1,1.67a4.23,4.23,0,0,1,1.47-1.5,4,4,0,0,1,2-.5,3.76,3.76,0,0,1,2.32.67,3,3,0,0,1,1.16,1.69,15,15,0,0,1,.26,3.39V22.91h-5.52V10.34a12,12,0,0,0-.12-2.28.63.63,0,0,0-.69-.41.68.68,0,0,0-.73.47,11.05,11.05,0,0,0-.16,2.53V22.91h-5.52V4.77Z" transform="translate(-2.1 -0.65)" style="fill:#38473b"/><path d="M168.5,2.35V5.2H170V8.07H168.5v9.71a5.37,5.37,0,0,0,.18,2,3.12,3.12,0,0,0,1.54.2v2.93H168a15.27,15.27,0,0,1-2.69-.16,2.88,2.88,0,0,1-1.42-.72,2.42,2.42,0,0,1-.77-1.3,23.18,23.18,0,0,1-.15-3.44V8.07h-1.19V5.2H163V2.35Z" transform="translate(-2.1 -0.65)" style="fill:#38473b"/><path d="M185.12,14.16H178v3.92a4.42,4.42,0,0,0,.17,1.59.69.69,0,0,0,.69.35.82.82,0,0,0,.84-.47,5.16,5.16,0,0,0,.21-1.82v-2.4h5.24v1.34a11.37,11.37,0,0,1-.22,2.59,5.3,5.3,0,0,1-1,1.93,4.86,4.86,0,0,1-2,1.53,7.51,7.51,0,0,1-3,.52,8.63,8.63,0,0,1-3.09-.51,5,5,0,0,1-2.09-1.39,4.87,4.87,0,0,1-1-1.94,12.51,12.51,0,0,1-.29-3.08V11a9.19,9.19,0,0,1,.64-3.76,4.43,4.43,0,0,1,2.11-2.1,7.41,7.41,0,0,1,3.36-.73,7.53,7.53,0,0,1,3.84.88,4.93,4.93,0,0,1,2.12,2.34,11,11,0,0,1,.61,4.09Zm-5.54-2.95V9.88a6.69,6.69,0,0,0-.15-1.82.6.6,0,0,0-.62-.41c-.38,0-.62.12-.71.35A7.44,7.44,0,0,0,178,9.88v1.33Z" transform="translate(-2.1 -0.65)" style="fill:#38473b"/><path d="M193.94,4.77l-.1,1.67a4.07,4.07,0,0,1,1.47-1.5,4,4,0,0,1,2-.5,3.78,3.78,0,0,1,2.32.67A3,3,0,0,1,200.8,6.8a15.6,15.6,0,0,1,.26,3.39V22.91h-5.52V10.34a12,12,0,0,0-.12-2.28.63.63,0,0,0-.69-.41.69.69,0,0,0-.74.47,12,12,0,0,0-.15,2.53V22.91h-5.52V4.77Z" transform="translate(-2.1 -0.65)" style="fill:#38473b"/><path d="M216.93.77V22.91H211.4V21.59a5.71,5.71,0,0,1-1.66,1.24,4.37,4.37,0,0,1-1.84.41,3.7,3.7,0,0,1-2.22-.68A3,3,0,0,1,204.47,21a10.93,10.93,0,0,1-.27-2.89V9.61a11.27,11.27,0,0,1,.27-3,2.9,2.9,0,0,1,1.22-1.54A3.92,3.92,0,0,1,208,4.44a4.51,4.51,0,0,1,3.43,1.48V.77ZM211.4,9.33A3.36,3.36,0,0,0,211.23,8a.69.69,0,0,0-.67-.34.7.7,0,0,0-.67.31,3.47,3.47,0,0,0-.17,1.37v8.89a4.08,4.08,0,0,0,.17,1.46.62.62,0,0,0,.62.34.71.71,0,0,0,.72-.39,6.34,6.34,0,0,0,.17-1.9Z" transform="translate(-2.1 -0.65)" style="fill:#38473b"/><ellipse cx="11.1" cy="11.35" rx="11.1" ry="11.35" style="fill:#38473b"/><ellipse cx="11.1" cy="11.35" rx="9.93" ry="10.15" style="fill:#ffd82a"/><path d="M11.39,14a5.22,5.22,0,0,0-.34-1.22,1.8,1.8,0,0,1,.85,0c.15,1.53,0,2.48-.36,2.93A11.09,11.09,0,0,0,11.39,14Zm.39-3c0,.1.05.19.07.28a1,1,0,0,1-.12.76,2,2,0,0,0-.88-.55A1.73,1.73,0,0,1,11.78,11Z" transform="translate(-2.1 -0.65)" style="fill:#fff"/><path d="M15.17,12a6.64,6.64,0,0,0,.08,2.32,7.81,7.81,0,0,0,.15.79,6.41,6.41,0,0,1-.82-2.1,3.47,3.47,0,0,1,.63-2.72,1.64,1.64,0,0,1,.89.14,2.23,2.23,0,0,0-.83,1.16,6.11,6.11,0,0,0,1-.3,1.13,1.13,0,0,1-.34.72Z" transform="translate(-2.1 -0.65)" style="fill:#fff"/><path d="M12.26,9.93a21.67,21.67,0,0,0-.69-3,2.92,2.92,0,0,1,1.59.14c.07.78.15,1.56.22,2.33a7.9,7.9,0,0,0,1.82-.6,2.54,2.54,0,0,1-.62,1.52,2.82,2.82,0,0,1-1.13-.19c.28,3.84.14,6.15-.45,6.93A65.84,65.84,0,0,0,12.26,9.93Z" transform="translate(-2.1 -0.65)" style="fill:#fff"/><g style="isolation:isolate"><polygon points="15.16 8.37 13.8 7.63 18.93 7.51 20.28 8.24 15.16 8.37" style="fill:#222b24"/><polygon points="19.92 8.08 18.57 7.34 18.93 7.51 20.28 8.24 19.92 8.08" style="fill:#181f19"/><polygon points="15.8 12.66 14.44 11.92 17.16 9.17 18.52 9.91 15.8 12.66" style="fill:#202821"/><polygon points="17.96 9.94 16.61 9.2 17.16 9.17 18.52 9.91 17.96 9.94" style="fill:#1b221c"/><polygon points="16.05 14.37 14.7 13.63 14.44 11.92 15.8 12.66 16.05 14.37" style="fill:#191f1a"/><polygon points="17.96 9.94 18.52 9.91 15.8 12.66 15.44 12.5 17.96 9.94" style="fill:#212a23"/><polygon points="15.44 12.5 14.08 11.77 14.44 11.92 15.8 12.66 15.44 12.5" style="fill:#121713"/><polygon points="15.44 12.5 14.08 11.77 16.61 9.2 17.96 9.94 15.44 12.5" style="fill:#191f1a"/><polygon points="15.44 12.5 15.8 12.66 16.05 14.37 15.69 14.21 15.44 12.5" style="fill:#181f1a"/><polygon points="15.69 14.21 14.34 13.48 14.08 11.77 15.44 12.5 15.69 14.21" style="fill:#0e120f"/><polygon points="15.41 10.09 14.05 9.35 13.8 7.63 15.16 8.37 15.41 10.09" style="fill:#191f1a"/><polygon points="15.16 8.37 20.28 8.24 20.5 9.68 16.05 14.37 15.8 12.66 18.52 9.91 17.96 9.94 15.41 10.09 15.16 8.37" style="fill:#2b362d"/><polygon points="14.79 8.21 19.92 8.08 20.28 8.24 15.16 8.37 14.79 8.21" style="fill:#212b23"/><polygon points="14.79 8.21 13.43 7.47 13.8 7.63 15.16 8.37 14.79 8.21" style="fill:#121713"/><polygon points="14.79 8.21 13.43 7.47 18.57 7.34 19.92 8.08 14.79 8.21" style="fill:#1b221c"/><polygon points="15.05 9.92 13.7 9.18 13.43 7.47 14.79 8.21 15.05 9.92" style="fill:#0e120f"/><polygon points="14.79 8.21 15.16 8.37 15.41 10.09 15.05 9.92 14.79 8.21" style="fill:#181f1a"/></g><g style="isolation:isolate"><polygon points="5.47 13.37 4.12 12.63 7.22 12.46 8.57 13.2 5.47 13.37" style="fill:#222b24"/><polygon points="8.21 13.03 6.86 12.29 7.22 12.46 8.57 13.2 8.21 13.03" style="fill:#191f1a"/><polygon points="5.66 13.18 4.3 12.44 6.86 12.29 8.21 13.03 5.66 13.18" style="fill:#1b221d"/><polygon points="5.66 13.18 8.21 13.03 8.57 13.2 5.47 13.37 5.66 13.18" style="fill:#222b24"/><polygon points="5.47 13.37 4.12 12.63 4.3 12.44 5.66 13.18 5.47 13.37" style="fill:#19201b"/><polygon points="3.49 13.59 2.13 12.86 6.58 8.15 7.93 8.89 3.49 13.59" style="fill:#202821"/><polygon points="7.57 8.73 6.22 7.99 6.58 8.15 7.93 8.89 7.57 8.73" style="fill:#171e19"/><polygon points="7.93 8.89 8.19 10.61 5.66 13.18 5.47 13.37 8.57 13.2 8.84 14.9 3.7 15.03 3.49 13.59 7.93 8.89" style="fill:#2b362d"/><polygon points="3.7 15.03 2.35 14.29 2.13 12.86 3.49 13.59 3.7 15.03" style="fill:#191f1a"/><polygon points="7.57 8.73 7.93 8.89 3.49 13.59 3.13 13.43 7.57 8.73" style="fill:#202922"/><polygon points="3.13 13.43 1.77 12.69 2.13 12.86 3.49 13.59 3.13 13.43" style="fill:#121713"/><polygon points="3.34 14.87 1.99 14.13 1.77 12.69 3.13 13.43 3.34 14.87" style="fill:#0e120f"/><polygon points="3.13 13.43 3.49 13.59 3.7 15.03 3.34 14.87 3.13 13.43" style="fill:#181f1a"/><polygon points="3.13 13.43 1.77 12.69 6.22 7.99 7.57 8.73 3.13 13.43" style="fill:#181e19"/></g></g></svg>