<svg xmlns="http://www.w3.org/2000/svg" viewBox="0 0 74.61 76.29"><defs><style>.cls-1{fill:#38473b;}.cls-2{fill:#ffd82a;}.cls-3{fill:#fff;}.cls-4{isolation:isolate;}.cls-5{fill:#222b24;}.cls-6{fill:#181f19;}.cls-7{fill:#202821;}.cls-8{fill:#1b221c;}.cls-9{fill:#191f1a;}.cls-10{fill:#121713;}.cls-11{fill:#181f1a;}.cls-12{fill:#0e120f;}.cls-13{fill:#212a23;}.cls-14{fill:#2b362d;}.cls-15{fill:#212b23;}.cls-16{fill:#222c24;}.cls-17{fill:#1b221d;}.cls-18{fill:#19201b;}.cls-19{fill:#171e19;}.cls-20{fill:#202922;}.cls-21{fill:#181e19;}</style></defs><title>iteachfrontend logo</title><g id="Layer_2" data-name="Layer 2"><g id="Logo_4" data-name="Logo 4"><g id="Graphic_Elements" data-name="Graphic Elements"><ellipse class="cls-1" cx="37.31" cy="38.15" rx="37.31" ry="38.15"/><ellipse class="cls-2" cx="37.31" cy="38.15" rx="33.38" ry="34.13"/><path class="cls-3" d="M31.23,44.7a17,17,0,0,0-1.17-4.09,6,6,0,0,1,2.88.13c.48,5.13.12,8.34-1.23,9.85A37.71,37.71,0,0,0,31.23,44.7Zm1.29-10a6.85,6.85,0,0,1,.24.94,3.3,3.3,0,0,1-.39,2.56,7.07,7.07,0,0,0-3-1.85A5.82,5.82,0,0,1,32.52,34.74Z"/><path class="cls-3" d="M43.93,38.15a22.3,22.3,0,0,0,.25,7.8c.15.85.3,1.73.51,2.63a21.85,21.85,0,0,1-2.76-7,11.55,11.55,0,0,1,2.14-9.13,5.48,5.48,0,0,1,3,.45,7.32,7.32,0,0,0-2.8,3.9,18.09,18.09,0,0,0,3.24-1,3.8,3.8,0,0,1-1.17,2.42Z"/><path class="cls-3" d="M34.15,31.19a74.89,74.89,0,0,0-2.33-10,9.69,9.69,0,0,1,5.34.47c.25,2.62.51,5.25.76,7.83a25.34,25.34,0,0,0,6.1-2A8.56,8.56,0,0,1,42,32.6,9.4,9.4,0,0,1,38.14,32c.93,12.91.48,20.68-1.52,23.3A221.81,221.81,0,0,0,34.15,31.19Z"/><g class="cls-4"><polygon class="cls-5" points="50.83 28.22 46.27 25.74 63.51 25.33 68.06 27.81 50.83 28.22"/><polygon class="cls-6" points="66.85 27.26 62.29 24.78 63.51 25.33 68.06 27.81 66.85 27.26"/><polygon class="cls-7" points="52.99 42.67 48.43 40.19 57.56 30.93 62.12 33.41 52.99 42.67"/><polygon class="cls-8" points="60.27 33.51 55.71 31.03 57.56 30.93 62.12 33.41 60.27 33.51"/><polygon class="cls-9" points="53.85 48.41 49.29 45.93 48.43 40.19 52.99 42.67 53.85 48.41"/><polygon class="cls-10" points="51.77 42.12 47.21 39.64 48.43 40.19 52.99 42.67 51.77 42.12"/><polygon class="cls-9" points="51.77 42.12 47.21 39.64 55.71 31.03 60.27 33.51 51.77 42.12"/><polygon class="cls-11" points="51.77 42.12 52.99 42.67 53.85 48.41 52.63 47.86 51.77 42.12"/><polygon class="cls-12" points="52.63 47.86 48.08 45.38 47.21 39.64 51.77 42.12 52.63 47.86"/><polygon class="cls-13" points="60.27 33.51 62.12 33.41 52.99 42.67 51.77 42.12 60.27 33.51"/><polygon class="cls-9" points="51.69 34 47.13 31.52 46.27 25.74 50.83 28.22 51.69 34"/><polygon class="cls-14" points="50.83 28.22 68.06 27.81 68.78 32.63 53.85 48.41 52.99 42.67 62.12 33.41 60.27 33.51 51.69 34 50.83 28.22"/><polygon class="cls-10" points="49.61 27.67 45.05 25.19 46.27 25.74 50.83 28.22 49.61 27.67"/><polygon class="cls-8" points="49.61 27.67 45.05 25.19 62.29 24.78 66.85 27.26 49.61 27.67"/><polygon class="cls-12" points="50.48 33.45 45.92 30.97 45.05 25.19 49.61 27.67 50.48 33.45"/><polygon class="cls-11" points="49.61 27.67 50.83 28.22 51.69 34 50.48 33.45 49.61 27.67"/><polygon class="cls-15" points="49.61 27.67 66.85 27.26 68.06 27.81 50.83 28.22 49.61 27.67"/></g><g class="cls-4"><polygon class="cls-16" points="18.28 45.02 13.72 42.54 24.15 41.94 28.71 44.42 18.28 45.02"/><polygon class="cls-9" points="27.49 43.88 22.93 41.41 24.15 41.94 28.71 44.42 27.49 43.88"/><polygon class="cls-17" points="18.92 44.37 14.36 41.88 22.93 41.41 27.49 43.88 18.92 44.37"/><polygon class="cls-5" points="18.92 44.37 27.49 43.88 28.71 44.42 18.28 45.02 18.92 44.37"/><polygon class="cls-18" points="18.28 45.02 13.72 42.54 14.36 41.88 18.92 44.37 18.28 45.02"/><polygon class="cls-7" points="11.6 45.77 7.04 43.29 21.98 27.5 26.54 29.98 11.6 45.77"/><polygon class="cls-19" points="25.32 29.43 20.77 26.96 21.98 27.5 26.54 29.98 25.32 29.43"/><polygon class="cls-14" points="26.54 29.98 27.4 35.76 18.92 44.37 18.28 45.02 28.71 44.42 29.56 50.17 12.33 50.6 11.6 45.77 26.54 29.98"/><polygon class="cls-9" points="12.33 50.6 7.77 48.12 7.04 43.29 11.6 45.77 12.33 50.6"/><polygon class="cls-10" points="10.39 45.23 5.83 42.75 7.04 43.29 11.6 45.77 10.39 45.23"/><polygon class="cls-12" points="11.11 50.05 6.55 47.57 5.83 42.75 10.39 45.23 11.11 50.05"/><polygon class="cls-20" points="25.32 29.43 26.54 29.98 11.6 45.77 10.39 45.23 25.32 29.43"/><polygon class="cls-11" points="10.39 45.23 11.6 45.77 12.33 50.6 11.11 50.05 10.39 45.23"/><polygon class="cls-21" points="10.39 45.23 5.83 42.75 20.77 26.96 25.32 29.43 10.39 45.23"/></g></g></g></g></svg>