<?xml version="1.0" standalone="no"?>
<!DOCTYPE svg PUBLIC "-//W3C//DTD SVG 20010904//EN"
 "http://www.w3.org/TR/2001/REC-SVG-20010904/DTD/svg10.dtd">
<svg version="1.0" xmlns="http://www.w3.org/2000/svg"
 width="409.000000pt" height="409.000000pt" viewBox="0 0 409.000000 409.000000"
 preserveAspectRatio="xMidYMid meet">
<metadata>
Created by potrace 1.11, written by Peter Selinger 2001-2013
</metadata>
<g transform="translate(0.000000,409.000000) scale(0.100000,-0.100000)"
fill="#000000" stroke="none">
<path d="M1888 3985 c-2 -2 -28 -5 -58 -9 -107 -11 -146 -18 -257 -47 -202
-52 -413 -147 -588 -267 -44 -30 -82 -58 -85 -61 -3 -4 -25 -22 -50 -41 -71
-55 -176 -158 -245 -240 -252 -302 -407 -661 -452 -1050 -10 -82 -10 -354 -1
-440 56 -509 302 -969 693 -1297 225 -189 547 -343 834 -398 168 -33 435 -41
601 -19 305 40 636 173 865 346 119 90 253 217 350 332 55 67 185 256 185 271
0 4 8 19 19 33 26 39 99 203 133 302 76 224 103 392 103 645 0 250 -23 398
-97 625 -161 494 -523 908 -989 1134 -64 31 -123 56 -131 56 -8 0 -18 3 -22 7
-23 24 -281 89 -422 107 -89 11 -376 19 -386 11z"/>
</g>
</svg>
